<?xml version="1.0" encoding="UTF-8"?>
<!-- Generated by Pixelmator Pro 3.2.3 -->
<svg width="1050" height="800" viewBox="0 0 1050 800" xmlns="http://www.w3.org/2000/svg" xmlns:xlink="http://www.w3.org/1999/xlink">
    <path id="---" fill="#b71375" fill-rule="evenodd" stroke="none" d="M 91 663 C 91 671.284302 97.715729 678 106 678 L 176 678 C 184.284271 678 191 671.284302 191 663 L 191 573 C 191 564.715698 184.284271 558 176 558 L 106 558 C 97.715729 558 91 564.715698 91 573 Z"/>
    <path id="----" fill="#586dbc" fill-rule="evenodd" stroke="none" d="M 224 663 C 224 671.284302 230.715729 678 239 678 L 309 678 C 317.284271 678 324 671.284302 324 663 L 324 393 C 324 384.715729 317.284271 378 309 378 L 239 378 C 230.715729 378 224 384.715729 224 393 Z"/>
    <path id="-----2" fill="#e76161" fill-rule="evenodd" stroke="none" d="M 357 663 C 357 671.284302 363.715729 678 372 678 L 442 678 C 450.284271 678 457 671.284302 457 663 L 457 593 C 457 584.715698 450.284271 578 442 578 L 372 578 C 363.715729 578 357 584.715698 357 593 Z"/>
    <path id="-----3" fill="#c17d7c" fill-opacity="0.631504" fill-rule="evenodd" stroke="none" d="M 490 663 C 490 671.284302 496.715729 678 505 678 L 575 678 C 583.284302 678 590 671.284302 590 663 L 590 213 C 590 204.715698 583.284302 198 575 198 L 505 198 C 496.715729 198 490 204.715698 490 213 Z"/>
    <path id="-----4" fill="#18a7ce" fill-rule="evenodd" stroke="none" d="M 622 663 C 622 671.284302 628.715698 678 637 678 L 707 678 C 715.284302 678 722 671.284302 722 663 L 722 493 C 722 484.715729 715.284302 478 707 478 L 637 478 C 628.715698 478 622 484.715729 622 493 Z"/>
    <path id="-----5" fill="#d25380" fill-rule="evenodd" stroke="none" d="M 753 663 C 753 671.284302 759.715698 678 768 678 L 838 678 C 846.284302 678 853 671.284302 853 663 L 853 93 C 853 84.715698 846.284302 78 838 78 L 768 78 C 759.715698 78 753 84.715698 753 93 Z"/>
    <path id="-----6" fill="#f97b22" fill-rule="evenodd" stroke="none" d="M 883 663 C 883 671.284302 889.715698 678 898 678 L 968 678 C 976.284302 678 983 671.284302 983 663 L 983 393 C 983 384.715729 976.284302 378 968 378 L 898 378 C 889.715698 378 883 384.715729 883 393 Z"/>
    <text id="60" xml:space="preserve" x="768" y="751" font-family="Marker Felt" font-size="50" font-weight="700" fill="#2f2e41" letter-spacing="0.5">60</text>
    <text id="20" xml:space="preserve" x="638" y="751" font-family="Marker Felt" font-size="50" font-weight="700" fill="#2f2e41" letter-spacing="0.5">20</text>
    <text id="30" xml:space="preserve" x="899" y="751" font-family="Marker Felt" font-size="50" font-weight="700" fill="#2f2e41" letter-spacing="0.5">30</text>
    <text id="10" xml:space="preserve" x="378" y="751" font-family="Marker Felt" font-size="50" font-weight="700" fill="#2f2e41" letter-spacing="0.5">10</text>
    <text id="text1" xml:space="preserve" x="240" y="751" font-family="Marker Felt" font-size="50" font-weight="700" fill="#2f2e41" letter-spacing="0.5">30</text>
    <text id="12" xml:space="preserve" x="114" y="751" font-family="Marker Felt" font-size="50" font-weight="700" fill="#2f2e41" letter-spacing="0.5">12</text>
    <text id="48" xml:space="preserve" x="504" y="751" font-family="Marker Felt" font-size="50" font-weight="700" fill="#2f2e41" letter-spacing="0.5">48</text>
</svg>
