<?xml version="1.0" encoding="UTF-8"?>
<!-- Generated by Pixelmator Pro 3.2.3 -->
<svg width="850" height="740" viewBox="0 0 850 740" xmlns="http://www.w3.org/2000/svg" xmlns:xlink="http://www.w3.org/1999/xlink">
    <path id="path1" fill="#f2f2f2" stroke="none" d="M 766.877991 384.710022 C 766.988892 476.379791 731.556152 564.522705 668.027954 630.609985 C 664.197998 634.619995 660.264669 638.533325 656.227966 642.349976 C 650.077983 648.199992 643.721313 653.823324 637.157959 659.219971 C 575.760376 709.804382 499.111786 738.229675 419.578033 739.909973 C 416.92805 739.969991 414.268036 740 411.597992 740 C 348.167999 740 268.388 706.120056 195.988007 659.219971 C 189.998016 655.339966 184.061351 651.369975 178.178009 647.309998 C 175.428009 645.429993 172.691345 643.523315 169.968018 641.589966 C 142.044281 621.87262 115.539154 600.219482 90.64801 576.790039 C 74.350876 561.495117 59.068447 545.153809 44.898006 527.869995 C -10.731997 459.249969 -23.001986 397.420013 56.30801 384.710022 C 65.698007 383.210022 74.81134 381.606689 83.64801 379.900024 C 96.448059 377.440023 108.698059 374.783356 120.39801 371.930023 C 136.15802 368.100026 150.964701 363.946686 164.818054 359.470001 C 169.478068 357.970001 174.031403 356.440002 178.478058 354.880005 C 244.218048 331.790009 288.218048 301.680054 318.16806 269.01001 C 323.248057 263.480021 327.931386 257.883352 332.218048 252.220001 C 338.776581 243.599792 344.733978 234.538391 350.048065 225.099976 C 357.38266 211.986023 363.543304 198.249207 368.458038 184.049988 L 368.728058 183.27002 C 392.558075 114.530029 385.308075 50.77002 411.598053 29.429993 C 523.978027 -61.799988 663.888062 68.119995 729.558044 221.330017 C 732.868022 229.050008 735.981344 236.816671 738.89801 244.630005 C 740.208028 248.120056 741.471375 251.61673 742.688049 255.120026 C 745.888 264.249949 748.791321 273.40328 751.39801 282.580017 C 752.39801 286.080017 753.351359 289.576681 754.258057 293.070007 C 755.228088 296.840027 756.158081 300.600006 757.018066 304.360016 C 763.407959 331.890015 766.877991 359.040039 766.877991 384.710022 Z"/>
    <path id="path2" fill="#2f2e41" stroke="none" d="M 419.578033 739.910034 C 416.92805 739.970011 414.268036 740 411.597992 740 C 348.167999 740 268.388 706.120056 195.988007 659.220032 C 189.998016 655.340027 184.061351 651.370015 178.178009 647.309998 L 183.338013 615.910034 L 339.548004 595.170044 L 417.948029 655.119995 Z"/>
    <path id="path3" fill="#e6e6e6" stroke="none" d="M 427.097931 255.119995 L 404.837982 255.119995 C 403.402313 255.120728 402.238678 256.284454 402.238129 257.720093 L 402.238129 279.980103 C 402.236725 280.670044 402.510162 281.332123 402.998077 281.820007 C 403.485931 282.307861 404.14798 282.581329 404.837982 282.579956 L 427.097931 282.579956 C 428.5336 282.579346 429.697357 281.415741 429.698029 279.980103 L 429.698029 257.720093 C 429.693878 256.285828 428.532196 255.124207 427.097931 255.119995 Z"/>
    <path id="path4" fill="#e6e6e6" stroke="none" d="M 429.65799 295.210083 C 429.429047 293.97467 428.354401 293.076294 427.097931 293.069946 L 404.837982 293.069946 C 403.402313 293.070709 402.238739 294.234406 402.238129 295.670044 L 402.238129 317.930054 C 402.236725 318.620026 402.510162 319.282135 402.998016 319.77002 C 403.48587 320.257904 404.14798 320.531403 404.837982 320.53006 L 427.097931 320.53006 C 428.533661 320.529419 429.697357 319.365723 429.698029 317.930054 L 429.698029 295.670044 C 429.700104 295.515778 429.686676 295.361694 429.65799 295.210083 Z"/>
    <path id="path5" fill="#e6e6e6" stroke="none" d="M 428.108002 331.220093 C 427.787811 331.087616 427.44455 331.019623 427.097992 331.02002 L 404.837982 331.02002 C 404.148041 331.018646 403.485931 331.292145 402.998077 331.78006 C 402.510223 332.267944 402.236786 332.930054 402.23819 333.620026 L 402.23819 355.880005 C 402.235016 356.570526 402.507904 357.233643 402.996185 357.721954 C 403.484406 358.210236 404.147491 358.483185 404.837982 358.480103 L 427.097992 358.480103 C 428.533722 358.479401 429.697418 357.315735 429.69809 355.880005 L 429.69809 333.620026 C 429.695587 332.574066 429.070221 331.630219 428.108002 331.220093 Z"/>
    <path id="path6" fill="#2f2e41" stroke="none" d="M 336.095001 659.221497 L 335.475006 659.221497 L 336.005005 659.151489 L 336.095001 659.221497 Z"/>
    <path id="b6132315-04e2-4cdb-a713-107c9cd58b0b" fill="#ffb6b6" stroke="none" d="M 351.13623 175.903259 C 351.13623 213.636353 320.547485 244.225098 282.814392 244.225098 C 245.081268 244.225098 214.492523 213.636353 214.492523 175.903259 C 214.492523 138.170105 245.081268 107.58136 282.814392 107.58136 C 320.547485 107.58136 351.13623 138.170105 351.13623 175.903259 Z"/>
    <path id="f4304bdd-ba2d-4fff-b404-410205410c5d-309" fill="#2f2e41" stroke="none" d="M 342.645966 125.810852 C 342.645966 125.810852 360.51535 91.649902 321.202118 88.544312 C 321.202118 88.544312 287.687225 58.142029 253.526337 82.986328 C 253.526337 82.986328 234.893097 82.986328 224.703796 104.072021 C 224.703796 104.072021 210.048798 98.514038 206.828278 113.388611 C 206.828278 113.388611 196.104797 144.444092 206.828278 172.393921 C 217.551758 200.343872 221.113647 203.449341 221.113647 203.449341 C 221.113647 203.449341 203.492737 144.850952 246.383545 141.7453 C 289.274353 138.639709 337.270233 111.835876 340.844696 145.996765 C 344.419159 180.157593 349.798004 188.574585 349.798004 188.574585 C 349.798004 188.574585 383.747589 139.785828 342.645966 125.810852 Z"/>
    <path id="path7" fill="#cacaca" stroke="none" d="M 459.548004 344.280029 L 459.327911 345.440033 L 456.857941 358.480011 L 439.787994 448.680023 L 438.777985 453.990082 L 436.65799 465.220062 L 433.758087 480.540009 L 427.327911 514.490112 L 425.488068 524.220093 L 424.798004 527.869995 L 424.558014 529.150024 L 422.64798 539.220093 L 422.067963 542.26001 L 417.40799 576.790039 L 413.337921 606.880005 L 426.958038 620.499939 L 418.837921 628.619934 L 413.508087 659.149963 L 413.517975 659.220032 L 195.988098 659.220032 C 187.188049 653.519958 178.514709 647.64325 169.968079 641.589905 L 171.758087 628.190002 C 171.758087 628.190002 177.917999 604.26001 175.327911 601.400024 C 172.748077 598.540039 167.087921 593.430054 167.087921 593.430054 L 174.218048 576.790039 L 175.208038 574.480103 L 173.548035 540.050049 L 173.508118 539.220093 L 172.95813 527.869995 L 172.888062 526.409912 L 172.778046 524.219971 L 170.66806 480.539948 L 170.628052 479.819855 L 169.988159 466.579865 L 169.388062 453.990021 L 169.128052 448.679962 L 166.558136 395.549957 L 164.818115 359.470001 L 163.298126 328.059998 L 169.408112 325.990051 L 234.758209 303.779968 L 261.828033 268.589905 L 318.168121 269.009918 L 345.748199 269.220001 L 391.768097 311.899933 L 402.23819 316.899933 L 402.318207 316.939911 L 409.828094 320.529938 L 428.868073 329.619934 L 448.998199 339.240051 L 459.328033 344.169983 Z"/>
    <path id="path8" fill="#ffb6b6" stroke="none" d="M 269.108856 556.721313 C 260.75119 559.959229 251.38858 559.328735 243.540405 554.999756 C 235.69223 550.670776 230.164612 543.087769 228.444977 534.291382 L 121.886139 519.173462 L 158.928955 477.271454 L 254.439941 498.051727 C 269.744934 496.099335 284.09137 505.90274 287.833832 520.871094 C 291.576294 535.839355 283.531799 551.241089 269.108856 556.721436 Z"/>
    <path id="path9" fill="#cacaca" stroke="none" d="M 221.597961 480.540009 C 219.624084 478.037628 216.829773 476.312836 213.708069 475.670013 L 169.988068 466.579926 L 165.498077 465.649994 C 160.220459 464.548615 155.66275 461.24942 152.967987 456.579926 C 151.585907 454.156403 150.749756 451.460297 150.517975 448.680023 C 150.30957 446.152252 150.612274 443.608368 151.407959 441.200043 L 166.557983 395.550049 L 176.387909 365.930054 C 177.579285 362.357697 178.282349 358.640717 178.478027 354.880035 C 179.025696 344.4729 175.805756 334.216766 169.407928 325.990143 C 157.859528 311.143921 137.955658 305.604401 120.397949 312.350006 C 120.147949 312.440094 119.887939 312.54007 119.637939 312.640015 C 107.204315 317.604736 97.829468 328.127838 94.327942 341.050018 L 83.647949 379.900024 L 61.617931 459.990082 C 57.155239 476.228241 60.000652 493.605377 69.409241 507.572235 C 78.817825 521.539063 93.852753 530.704834 110.577942 532.670044 L 173.547943 540.050049 L 202.687927 543.470093 C 209.675629 544.309692 216.135559 539.638916 217.527954 532.73999 C 217.575104 532.55896 217.611816 532.375244 217.637939 532.189941 L 218.337952 527.869873 L 224.268005 491.490021 L 224.327942 491.119904 C 224.952759 487.365997 223.96109 483.522919 221.597961 480.540009 Z"/>
    <path id="path10" fill="#ffb6b6" stroke="none" d="M 336.982574 557.887573 C 345.713348 559.914429 354.893463 557.970093 362.052704 552.577515 C 369.212006 547.185059 373.615021 538.898438 374.077057 529.947388 L 477.439056 499.953705 L 434.857513 463.694183 L 343.231354 497.735626 C 327.803894 497.960907 314.983154 509.689545 313.388916 525.036133 C 311.794647 540.382568 321.930817 554.496094 336.982574 557.887695 Z"/>
    <path id="path11" fill="#cacaca" stroke="none" d="M 528.758057 432.860016 L 479.597931 319.720093 C 475.577057 310.431335 468.39566 302.867279 459.327972 298.369995 C 456.525177 296.990112 453.581451 295.917236 450.548065 295.169983 C 450.077972 295.049988 449.608002 294.940002 449.138031 294.849915 C 442.70578 293.44632 436.034088 293.569641 429.658051 295.210022 C 417.870453 298.238251 407.928619 306.140045 402.318024 316.940033 C 402.287689 316.984436 402.260956 317.031219 402.238068 317.079926 C 395.953888 329.236816 395.816559 343.655609 401.86795 355.930023 L 402.478058 357.150024 L 437.218048 426.920013 C 439.61734 431.745636 439.842621 437.365936 437.837189 442.368011 C 435.831696 447.370148 431.786346 451.27829 426.718048 453.109955 L 424.277985 453.990082 L 380.39798 469.839935 C 373.554474 472.281952 369.872467 479.703461 372.067963 486.629974 L 372.178009 486.980072 L 384.477997 526.339966 C 384.537933 526.519897 384.59787 526.700073 384.667938 526.879883 C 384.776031 527.219482 384.90976 527.550537 385.067902 527.869873 C 387.768646 533.926758 394.473175 537.119995 400.877838 535.399902 L 424.557892 529.149902 L 429.387848 527.869873 L 490.537872 511.720001 C 506.820282 507.41745 520.41394 496.222809 527.758972 481.067657 C 535.104065 465.912445 535.468872 448.306305 528.757935 432.859894 Z"/>
    <path id="path12" fill="#3f3d56" stroke="none" d="M 44.898006 527.869995 C 59.068447 545.153809 74.350876 561.495117 90.64801 576.790039 L 542.617981 576.790039 C 551.684509 576.804321 559.029236 584.153564 559.037964 593.220093 L 559.687988 707.75 C 587.492615 694.975464 613.53125 678.66394 637.157959 659.220032 C 643.717977 653.830017 650.074646 648.206685 656.227966 642.350037 C 660.257996 638.530009 664.191325 634.616679 668.027954 630.610046 C 696.791809 600.645142 720.083862 565.872925 736.847961 527.869995 Z"/>
    <path id="path13" fill="#ffffff" stroke="none" d="M 668.027954 630.609985 C 664.197998 634.619954 660.264689 638.533285 656.228027 642.349976 L 560.018005 642.349976 L 560.018005 630.609985 Z"/>
    <path id="path14" fill="#3f3d56" stroke="none" d="M 458.648041 255.119995 C 457.67984 253.332886 455.810516 252.219757 453.777985 252.220093 L 125.938019 252.220093 C 122.877808 252.228088 120.400543 254.709808 120.39801 257.77002 L 120.39801 453.990143 L 459.327911 453.990143 L 459.327911 257.77002 C 459.33316 256.842865 459.098969 255.930084 458.648041 255.119995 Z"/>
    <path id="-" fill="#397a74" stroke="none" d="M 668 268.782715 C 667.525716 284.221578 663.95461 296.596273 657.286682 305.906799 C 650.617696 315.218302 642.695028 319.874481 633.518677 319.875336 C 626.044352 319.875336 619.493368 315.318766 613.865723 306.205627 C 608.236287 297.092631 605.421916 283.074615 605.422607 264.151581 C 605.422607 259.968597 605.517212 255.984751 605.706421 252.200043 C 605.89502 248.416189 606.131551 244.83079 606.416016 241.443848 L 611.382507 192.293335 L 578.603638 192.293335 C 572.928019 254.440959 568.269063 291.415822 564.62677 303.217926 C 560.984151 315.019765 554.811605 320.920868 546.109131 320.921234 C 542.180908 320.819489 538.432617 319.166382 535.608398 316.290039 C 532.292603 313.196625 530.469727 308.700287 530.641907 304.039459 C 530.641907 299.45993 534.071106 293.060974 540.929504 284.84259 C 547.787577 276.625814 551.595194 269.131256 552.352356 262.358917 L 560.866272 192.293396 L 547.102539 192.293396 C 543.22229 192.317688 539.403503 193.316345 535.963501 195.20636 C 532.797119 196.737427 530.041992 199.073303 527.946045 202.003723 L 521.844177 211.564941 L 516.877686 211.564941 C 521.5118 196.427205 527.211466 185.048442 533.976685 177.42865 C 540.739054 169.809509 548.519816 165.999959 557.31897 166 L 665.729858 166 L 665.729858 192.293335 L 629.119812 192.293335 C 627.984517 204.244873 627.109477 216.196299 626.49469 228.147614 C 625.878438 240.099152 625.571045 252.100474 625.57251 264.151581 C 625.57251 272.319224 627.369914 278.942383 630.964722 284.021057 C 634.558757 289.100464 639.052226 291.640076 644.445129 291.639893 C 647.755351 291.639893 651.231852 290.220591 654.874634 287.381989 C 658.374817 284.796967 660.62915 280.7323 661.04718 276.252502 C 661.331034 274.062744 661.543844 272.344706 661.685608 271.098389 C 661.827494 269.854167 661.898519 269.082275 661.898682 268.782715 Z"/>
    <path id="path15" fill="#3f3d56" stroke="none" d="M 120.101135 448.677643 L 120.101135 472.891449 C 120.101135 474.918732 120.906433 476.863007 122.339935 478.296478 C 123.773438 479.730011 125.717682 480.53537 127.744965 480.53537 L 252.841675 480.53537 L 252.841675 528.321899 L 251.17981 528.321899 C 250.916473 528.321899 250.663879 528.426514 250.477661 528.612671 C 250.291443 528.79895 250.186829 529.051514 250.186829 529.314819 L 250.186829 532.63855 C 250.186798 532.901978 250.291412 533.154541 250.477631 533.34082 C 250.663879 533.526978 250.916443 533.631592 251.17981 533.631592 L 328.838226 533.631592 C 329.101593 533.631592 329.354187 533.526978 329.540405 533.34082 C 329.726624 533.154541 329.831238 532.901978 329.831207 532.63855 L 329.831207 529.314819 C 329.831238 529.051514 329.726593 528.79895 329.540375 528.612671 C 329.354156 528.426514 329.101563 528.321899 328.838226 528.321899 L 327.176361 528.321899 L 327.176361 480.53537 L 452.273102 480.53537 C 454.300385 480.53537 456.244598 479.730011 457.678131 478.296478 C 459.111603 476.863007 459.916901 474.918732 459.916901 472.891449 L 459.916901 448.677643 Z"/>
    <path id="path16" fill="#397a74" stroke="none" d="M 317.209351 347.874207 C 317.209351 365.164246 303.192993 379.180634 285.902924 379.180634 C 268.612885 379.180634 254.596512 365.164246 254.596512 347.874207 C 254.596512 330.584137 268.612885 316.56778 285.902924 316.56778 C 303.192993 316.56778 317.209351 330.584137 317.209351 347.874207 Z"/>
    <path id="path17" fill="#397a74" stroke="none" d="M 365.667999 172.170044 L 360.667999 172.170044 C 360.667999 134.370056 323.258026 109.600037 285.518005 109.580017 C 280.028656 109.563965 274.551422 110.096619 269.167999 111.170044 C 263.108002 112.380066 256.818024 113.830017 250.638 115.720032 C 226.268005 123.190063 203.667999 137.630066 203.667999 172.170044 C 203.662811 178.87793 204.516418 185.558899 206.208008 192.050049 L 201.368011 193.310059 C 199.572784 186.40686 198.665466 179.302856 198.667999 172.170044 C 198.667999 141.990051 211.058014 121.26001 232.458008 108.900024 C 243.708008 102.400024 257.438019 98.210022 273.167999 96.170044 C 279.713837 95.299194 286.33139 95.098145 292.917999 95.570068 C 336.318024 98.690002 365.667999 131.970032 365.667999 172.170044 Z"/>
    <path id="path18" fill="#397a74" stroke="none" d="M 373.998016 174.940002 L 372.027985 160.380005 C 371.542084 156.703003 369.770905 153.316528 367.027985 150.820007 C 363.460175 147.522278 358.574615 146.047424 353.777985 146.820007 L 350.648041 147.25 C 348.91806 147.477722 347.351349 148.388916 346.298004 149.779968 C 345.235748 151.166321 344.771332 152.919617 345.008026 154.650024 L 349.558014 188.190002 C 349.942535 190.993469 352.077057 193.236755 354.858002 193.76001 C 355.259674 193.840515 355.668365 193.880676 356.078033 193.880005 C 356.372345 193.879944 356.666351 193.859924 356.958038 193.820007 L 360.458038 193.349976 C 364.770905 192.777649 368.656647 190.451294 371.198029 186.919983 C 371.467987 186.539978 371.727997 186.149963 371.967987 185.749939 C 373.842316 182.477905 374.557526 178.669067 373.998016 174.940002 Z"/>
    <path id="path19" fill="#ffffff" stroke="none" d="M 348.628021 147.860046 C 347.709991 148.306091 346.911346 148.964233 346.298004 149.780029 C 345.235748 151.166382 344.771332 152.919617 345.008026 154.650024 L 349.558014 188.190002 C 349.942535 190.99353 352.077057 193.236816 354.858002 193.76001 Z"/>
    <path id="path20" fill="#3f3d56" stroke="none" d="M 373.998016 174.940002 L 372.027985 160.380005 C 371.542084 156.703003 369.770905 153.316528 367.027985 150.820007 L 371.558014 184.190002 C 371.625885 184.725708 371.763763 185.250122 371.967987 185.75 C 373.842316 182.477905 374.557587 178.669128 373.998016 174.940002 Z"/>
    <path id="path21" fill="#3f3d56" stroke="none" d="M 375.96463 167.158203 C 376.484344 170.989075 375.796539 174.245117 374.428314 174.430725 C 373.060181 174.616333 371.529724 171.661255 371.01001 167.830322 C 370.490326 163.99939 371.178192 160.743408 372.546356 160.5578 C 373.914551 160.372192 375.444946 163.327271 375.96463 167.158203 Z"/>
    <path id="path22" fill="#397a74" stroke="none" d="M 221.678009 206.870056 L 213.978027 174.860046 C 213.416565 172.498718 211.492798 170.705017 209.098022 170.310059 C 208.76712 170.258545 208.432861 170.231812 208.098022 170.230042 C 207.626312 170.23175 207.156403 170.288757 206.697998 170.400024 L 203.718018 171.120056 C 195.729095 173.052185 190.812378 181.087158 192.728027 189.080017 L 196.178009 203.440063 C 196.965729 206.82074 198.841858 209.849243 201.518005 212.06012 C 201.951691 212.410095 202.405823 212.734009 202.878021 213.03009 C 206.264465 215.152527 210.36499 215.816101 214.248016 214.870117 L 217.218018 214.150085 C 218.003326 213.966858 218.742157 213.622986 219.388 213.140076 C 221.352325 211.707947 222.256927 209.231079 221.678009 206.870056 Z"/>
    <path id="path23" fill="#3f3d56" stroke="none" d="M 196.328583 196.52356 C 197.233078 200.282288 196.878098 203.591187 195.535706 203.914185 C 194.193314 204.237244 192.371857 201.452087 191.467346 197.693359 C 190.562851 193.934692 190.917831 190.625793 192.260223 190.302734 C 193.6026 189.979736 195.424072 192.764893 196.328583 196.52356 Z"/>
    <path id="path24" fill="#ffffff" stroke="none" d="M 222.167999 206.75 L 214.468018 174.73999 C 213.854645 172.185364 211.770355 170.246826 209.178009 169.820007 L 219.688019 213.539978 C 221.810547 211.985535 222.789032 209.306519 222.167999 206.75 Z"/>
    <path id="path25" fill="#3f3d56" stroke="none" d="M 194.468018 182.740051 C 194.255524 181.849854 193.85675 181.014832 193.298004 180.290039 C 192.215607 183.093262 192.016693 186.160522 192.728027 189.080017 L 196.178009 203.440002 C 196.965729 206.82074 198.841858 209.849243 201.518005 212.060059 Z"/>
</svg>
