<?xml version="1.0" encoding="UTF-8"?>
<!-- Generated by Pixelmator Pro 3.2.3 -->
<svg width="1050" height="800" viewBox="0 0 1050 800" xmlns="http://www.w3.org/2000/svg" xmlns:xlink="http://www.w3.org/1999/xlink">
    <path id="---" fill="#b71375" fill-opacity="0.503398" fill-rule="evenodd" stroke="#b71375" stroke-width="5" stroke-linecap="round" stroke-linejoin="round" d="M 224 663 C 224 671.284302 230.715729 678 239 678 L 309 678 C 317.284271 678 324 671.284302 324 663 L 324 573 C 324 564.715698 317.284271 558 309 558 L 239 558 C 230.715729 558 224 564.715698 224 573 Z"/>
    <path id="----" fill="#586dbc" fill-opacity="0.497438" fill-rule="evenodd" stroke="#586dbc" stroke-width="5" stroke-linecap="round" stroke-linejoin="round" d="M 490 663 C 490 671.284302 496.715729 678 505 678 L 575 678 C 583.284302 678 590 671.284302 590 663 L 590 393 C 590 384.715729 583.284302 378 575 378 L 505 378 C 496.715729 378 490 384.715729 490 393 Z"/>
    <path id="-----2" fill="#e76161" fill-opacity="0.496003" fill-rule="evenodd" stroke="#e76161" stroke-width="5" stroke-linecap="round" stroke-linejoin="round" d="M 91 663 C 91 671.284302 97.715729 678 106 678 L 176 678 C 184.284271 678 191 671.284302 191 663 L 191 593 C 191 584.715698 184.284271 578 176 578 L 106 578 C 97.715729 578 91 584.715698 91 593 Z"/>
    <path id="-----3" fill="#c17d7c" fill-opacity="0.499419" fill-rule="evenodd" stroke="#c17d7c" stroke-width="5" stroke-linecap="round" stroke-linejoin="round" d="M 753 663 C 753 671.284302 759.715698 678 768 678 L 838 678 C 846.284302 678 853 671.284302 853 663 L 853 213 C 853 204.715698 846.284302 198 838 198 L 768 198 C 759.715698 198 753 204.715698 753 213 Z"/>
    <path id="-----4" fill="#18a7ce" fill-opacity="0.49891" fill-rule="evenodd" stroke="#18a7ce" stroke-width="5" stroke-linecap="round" stroke-linejoin="round" d="M 357 663 C 357 671.284302 363.715729 678 372 678 L 442 678 C 450.284271 678 457 671.284302 457 663 L 457 493 C 457 484.715729 450.284271 478 442 478 L 372 478 C 363.715729 478 357 484.715729 357 493 Z"/>
    <path id="-----5" fill="#d25380" fill-opacity="0.498292" fill-rule="evenodd" stroke="#d25380" stroke-width="5" stroke-linecap="round" stroke-linejoin="round" d="M 883 663 C 883 671.284302 889.715698 678 898 678 L 968 678 C 976.284302 678 983 671.284302 983 663 L 983 93 C 983 84.715698 976.284302 78 968 78 L 898 78 C 889.715698 78 883 84.715698 883 93 Z"/>
    <path id="-----6" fill="#f97b22" fill-opacity="0.502798" fill-rule="evenodd" stroke="#f97b22" stroke-width="5" stroke-linecap="round" stroke-linejoin="round" d="M 622 663 C 622 671.284302 628.715698 678 637 678 L 707 678 C 715.284302 678 722 671.284302 722 663 L 722 393 C 722 384.715729 715.284302 378 707 378 L 637 378 C 628.715698 378 622 384.715729 622 393 Z"/>
    <text id="12" xml:space="preserve" x="244" y="753" font-family="Helvetica" font-size="50" font-weight="700" fill="#2f2e41" letter-spacing="0.5">12</text>
    <text id="30" xml:space="preserve" x="642" y="753" font-family="Helvetica" font-size="50" font-weight="700" fill="#2f2e41" letter-spacing="0.5">30</text>
    <text id="10" xml:space="preserve" x="111" y="753" font-family="Helvetica" font-size="50" font-weight="700" fill="#2f2e41" letter-spacing="0.5">10</text>
    <text id="48" xml:space="preserve" x="773" y="753" font-family="Helvetica" font-size="50" font-weight="700" fill="#2f2e41" letter-spacing="0.5">48</text>
    <text id="20" xml:space="preserve" x="377" y="753" font-family="Helvetica" font-size="50" font-weight="700" fill="#2f2e41" letter-spacing="0.5">20</text>
    <text id="60" xml:space="preserve" x="903" y="753" font-family="Helvetica" font-size="50" font-weight="700" fill="#2f2e41" letter-spacing="0.5">60</text>
    <text id="text1" xml:space="preserve" x="510" y="753" font-family="Helvetica" font-size="50" font-weight="700" fill="#2f2e41" letter-spacing="0.5">30</text>
</svg>
