<?xml version="1.0" encoding="UTF-8"?>
<!-- Generated by Pixelmator Pro 3.2.3 -->
<svg width="821" height="579" viewBox="0 0 821 579" xmlns="http://www.w3.org/2000/svg" xmlns:xlink="http://www.w3.org/1999/xlink">
    <path id="path1" fill="#3f3d56" stroke="none" d="M 638.909119 67 L 124.767151 67 C 115.884445 67.013489 108.686005 77.00119 108.676277 89.325745 L 108.676277 465.674255 C 108.686005 477.99881 115.884445 487.986511 124.767151 488 L 638.909119 488 C 647.791809 487.986511 654.990295 477.99881 655 465.674255 L 655 89.325745 C 654.990295 77.00119 647.791809 67.013489 638.909119 67 Z M 653.467529 465.674255 C 653.460266 476.825897 646.946533 485.863617 638.909119 485.873749 L 124.767151 485.873749 C 116.729782 485.863617 110.216011 476.825897 110.20874 465.674255 L 110.20874 89.325745 C 110.216011 78.174103 116.729782 69.136383 124.767151 69.126251 L 638.909119 69.126251 C 646.946533 69.136383 653.460266 78.174103 653.467529 89.325745 Z"/>
    <path id="path2" fill="#3f3d56" stroke="none" d="M 592.289429 113.360046 L 162.386856 113.360046 C 161.994415 113.360046 161.67627 113.951019 161.67627 114.680023 C 161.67627 115.409027 161.994415 116 162.386856 116 L 592.289429 116 C 592.681885 116 593 115.409027 593 114.680023 C 593 113.951019 592.681885 113.360046 592.289429 113.360046 Z"/>
    <path id="path3" fill="#3f3d56" stroke="none" d="M 333.67627 408.990448 C 333.123962 408.990448 332.67627 408.542694 332.67627 407.990448 L 332.67627 78.990417 C 332.67627 78.438141 333.123962 77.990417 333.67627 77.990417 C 334.228577 77.990417 334.67627 78.438141 334.67627 78.990417 L 334.67627 407.990448 C 334.67627 408.542694 334.228577 408.990387 333.67627 408.990448 Z"/>
    <path id="path4" fill="#3f3d56" stroke="none" d="M 484.67627 408.990448 C 484.123962 408.990448 483.67627 408.542694 483.67627 407.990448 L 483.67627 78.990417 C 483.67627 78.438141 484.123962 77.990417 484.67627 77.990417 C 485.228577 77.990417 485.67627 78.438141 485.67627 78.990417 L 485.67627 407.990448 C 485.67627 408.542694 485.228577 408.990387 484.67627 408.990448 Z"/>
    <path id="path5" fill="#387b74" stroke="none" d="M 236.591919 216.57782 L 200.05191 216.57782 C 197.56778 216.575073 195.554688 214.561951 195.55191 212.07782 L 195.55191 168.958221 C 195.554688 166.47406 197.56778 164.460968 200.05191 164.458221 L 236.591919 164.458221 C 239.07605 164.460968 241.089172 166.47406 241.091919 168.958221 L 241.091919 212.07785 C 241.089172 214.561981 239.07605 216.575073 236.591919 216.57782 Z"/>
    <path id="path6" fill="#387b74" stroke="none" d="M 288.591919 339.57782 L 252.05191 339.57782 C 249.56778 339.575073 247.554688 337.561951 247.55191 335.07782 L 247.55191 291.958221 C 247.554688 289.47406 249.56778 287.460968 252.05191 287.458221 L 288.591919 287.458221 C 291.07605 287.460968 293.089172 289.47406 293.091919 291.958221 L 293.091919 335.07785 C 293.089172 337.561981 291.07605 339.575073 288.591919 339.57782 Z"/>
    <path id="path7" fill="#387b74" stroke="none" d="M 406.592041 242.57782 L 370.052063 242.57782 C 367.567932 242.575012 365.554871 240.561951 365.552063 238.07782 L 365.552063 194.958221 C 365.554871 192.474091 367.567932 190.460999 370.052063 190.458221 L 406.592041 190.458221 C 409.076172 190.460999 411.089233 192.474091 411.092041 194.958221 L 411.092041 238.07785 C 411.089233 240.561951 409.076172 242.575012 406.592041 242.57782 Z"/>
    <path id="path8" fill="#387b74" stroke="none" d="M 559.592041 195.57782 L 523.052063 195.57782 C 520.567932 195.575012 518.554871 193.561951 518.552063 191.07782 L 518.552063 147.958221 C 518.554871 145.474091 520.567932 143.460999 523.052063 143.458221 L 559.592041 143.458221 C 562.076172 143.460999 564.089233 145.474091 564.092041 147.958221 L 564.092041 191.07785 C 564.089233 193.561951 562.076172 195.575012 559.592041 195.57782 Z"/>
    <path id="path9" fill="#ff6584" stroke="none" d="M 612.592041 268.57782 L 576.052063 268.57782 C 573.567932 268.575012 571.554871 266.561951 571.552063 264.07782 L 571.552063 220.958221 C 571.554871 218.474091 573.567932 216.460999 576.052063 216.458221 L 612.592041 216.458221 C 615.076172 216.460999 617.089233 218.474091 617.092041 220.958221 L 617.092041 264.07785 C 617.089233 266.561951 615.076172 268.575012 612.592041 268.57782 Z"/>
    <path id="path10" fill="#e6e6e6" stroke="none" d="M 541.592041 284.57782 L 505.052063 284.57782 C 502.567932 284.575012 500.554871 282.561951 500.552063 280.07782 L 500.552063 236.958221 C 500.554871 234.474091 502.567932 232.460999 505.052063 232.458221 L 541.592041 232.458221 C 544.076172 232.460999 546.089233 234.474091 546.092041 236.958221 L 546.092041 280.07785 C 546.089233 282.561951 544.076172 284.575012 541.592041 284.57782 Z"/>
    <path id="path11" fill="#e6e6e6" stroke="none" d="M 388.592041 352.577789 L 352.052063 352.577789 C 349.567932 352.575043 347.554871 350.561951 347.552063 348.07782 L 347.552063 304.958221 C 347.554871 302.474091 349.567932 300.460999 352.052063 300.458221 L 388.592041 300.458221 C 391.076172 300.460999 393.089233 302.474091 393.092041 304.958221 L 393.092041 348.07785 C 393.089233 350.561951 391.076172 352.575043 388.592041 352.577789 Z"/>
    <path id="path12" fill="#ff6584" stroke="none" d="M 203.591919 295.57782 L 167.05191 295.57782 C 164.56778 295.575073 162.554688 293.561951 162.55191 291.07782 L 162.55191 247.958221 C 162.554688 245.47406 164.56778 243.460968 167.05191 243.458221 L 203.591919 243.458221 C 206.07605 243.460968 208.089172 245.47406 208.091919 247.958221 L 208.091919 291.07785 C 208.089172 293.561981 206.07605 295.575073 203.591919 295.57782 Z"/>
    <path id="path13" fill="#e6e6e6" stroke="none" d="M 306.591919 216.57782 L 270.05191 216.57782 C 267.56778 216.575073 265.554688 214.561951 265.55191 212.07782 L 265.55191 168.958221 C 265.554688 166.47406 267.56778 164.460968 270.05191 164.458221 L 306.591919 164.458221 C 309.07605 164.460968 311.089172 166.47406 311.091919 168.958221 L 311.091919 212.07785 C 311.089172 214.561981 309.07605 216.575073 306.591919 216.57782 Z"/>
    <path id="path14" fill="#cccccc" stroke="none" d="M 276.67627 96.990417 L 219.67627 96.990417 C 217.467133 96.990417 215.67627 95.199554 215.67627 92.990417 C 215.67627 90.781281 217.467133 88.990417 219.67627 88.990417 L 276.67627 88.990417 C 278.885406 88.990417 280.67627 90.781281 280.67627 92.990417 C 280.67627 95.199554 278.885406 96.990417 276.67627 96.990417 Z"/>
    <path id="path15" fill="#cccccc" stroke="none" d="M 437.67627 96.990417 L 380.67627 96.990417 C 378.467163 96.990417 376.67627 95.199554 376.67627 92.990417 C 376.67627 90.781281 378.467163 88.990417 380.67627 88.990417 L 437.67627 88.990417 C 439.885437 88.990417 441.67627 90.781281 441.67627 92.990417 C 441.67627 95.199554 439.885437 96.990417 437.67627 96.990417 Z"/>
    <path id="path16" fill="#cccccc" stroke="none" d="M 588.67627 96.990417 L 531.67627 96.990417 C 529.467163 96.990417 527.67627 95.199554 527.67627 92.990417 C 527.67627 90.781281 529.467163 88.990417 531.67627 88.990417 L 588.67627 88.990417 C 590.885437 88.990417 592.67627 90.781281 592.67627 92.990417 C 592.67627 95.199554 590.885437 96.990417 588.67627 96.990417 Z"/>
    <path id="path17" fill="#ffb8b8" stroke="none" d="M 149.009216 389.881744 C 146.047424 389.591705 143.366241 388.004669 141.687103 385.547638 C 140.007996 383.090668 139.503418 380.016083 140.309143 377.151337 L 114.676277 353.290192 L 128.229034 349.852081 L 153.434784 370.295868 C 158.263763 372.006012 161.050476 377.057648 159.921417 382.054535 C 158.792328 387.051361 154.104309 390.414032 149.009216 389.881744 Z"/>
    <path id="path18" fill="#ffb8b8" stroke="none" d="M 184.404007 566.243408 L 196.664001 566.243408 L 202.496002 518.955444 L 184.401993 518.955444 L 184.404007 566.243408 Z"/>
    <path id="path19" fill="#2f2e41" stroke="none" d="M 220.308044 577.625977 L 181.777344 577.627747 L 181.777344 577.627747 L 181.776657 562.740845 L 181.776657 562.740845 L 205.420517 562.739807 C 213.642319 562.73938 220.307693 569.404175 220.308075 577.625977 L 220.308075 577.625977 L 220.308044 577.625977 Z"/>
    <path id="path20" fill="#ffb8b8" stroke="none" d="M 100.345001 557.391418 L 112.193001 560.54541 L 129.994003 516.349426 L 112.509003 511.695404 L 100.345001 557.391418 Z"/>
    <path id="path21" fill="#2f2e41" stroke="none" d="M 132.112961 577.629822 L 94.878792 567.718994 L 94.878792 567.718994 L 98.707985 553.333069 L 98.707985 553.333069 L 121.556259 559.414734 C 129.501373 561.529541 134.227783 569.684692 132.112961 577.629822 L 132.112961 577.629822 L 132.112961 577.629822 Z"/>
    <path id="path22" fill="#2f2e41" stroke="none" d="M 199.960938 557.290222 L 181.253662 557.290222 C 178.804382 557.298767 176.753784 555.436035 176.527588 552.997253 L 165.171143 435.065582 C 164.999481 433.281586 163.588684 431.868744 161.804901 431.694611 C 160.021088 431.520416 158.363647 432.633636 157.850128 434.350739 L 124.876717 544.550049 C 124.152138 546.983521 121.639351 548.414551 119.176735 547.796082 L 101.773628 543.444458 C 100.546822 543.137939 99.493019 542.354614 98.845863 541.268188 C 98.198708 540.181885 98.011726 538.882202 98.326363 537.657349 C 98.610542 536.547119 126.737007 426.629059 126.982613 425.499237 C 133.355438 378.531403 140.979675 365.945526 145.075623 359.184784 C 145.414734 358.625153 145.726257 358.110565 146.006775 357.624237 C 146.357849 357.015839 148.519226 350.979675 149.89032 347.059753 C 150.250336 345.77063 151.133331 344.690918 152.325378 344.082214 C 169.536072 335.280457 189.672791 341.37323 195.434509 343.450378 C 196.389709 343.786743 197.210083 344.423737 197.772644 345.265808 C 215.057312 371.337128 206.57489 522.756958 204.698914 552.846863 C 204.536713 555.344849 202.464203 557.288513 199.960938 557.290222 Z"/>
    <path id="path23" fill="#ffb8b8" stroke="none" d="M 176.245178 234.014648 C 176.245178 247.579346 165.248825 258.575684 151.684143 258.575684 C 138.119461 258.575684 127.123123 247.579346 127.123123 234.014648 C 127.123123 220.449982 138.119461 209.453613 151.684143 209.453613 C 165.248825 209.453613 176.245178 220.449982 176.245178 234.014648 Z"/>
    <path id="path24" fill="#cccccc" stroke="none" d="M 149.081787 351.828339 L 148.905273 351.657379 C 148.574219 351.337097 115.849617 319.277527 120.084724 289.632996 C 121.896004 276.953308 132.155029 268.851746 149.752441 266.202332 C 163.118439 264.217285 175.908173 272.369141 179.752197 285.323425 L 197.1521 344.8078 Z"/>
    <path id="path25" fill="#cccccc" stroke="none" d="M 132.332764 374.631012 L 109.014412 351.460144 C 105.771858 348.219696 104.453072 343.523285 105.534676 339.068542 L 116.82325 293.149597 C 117.506721 290.368347 119.311653 287.994415 121.808907 286.592224 C 124.30619 285.190033 127.272682 284.884827 130.003143 285.749207 C 135.356018 287.474579 138.37088 293.139374 136.812225 298.543152 L 124.927742 338.939636 L 144.145996 359.576385 Z"/>
    <path id="path26" fill="#ffb8b8" stroke="none" d="M 257.404327 295.552826 C 256.156219 298.254425 253.775574 300.264404 250.902985 301.041931 C 248.030396 301.819489 244.960968 301.284698 242.520599 299.581512 L 211.391144 315.716003 L 212.767029 302.010223 L 240.363953 284.931335 C 243.567261 280.933563 249.254425 279.963501 253.601868 282.673309 C 257.94931 285.383118 259.582916 290.916321 257.404358 295.552826 Z"/>
    <path id="path27" fill="#cccccc" stroke="none" d="M 239.121124 305.755035 L 208.774872 318.868591 C 204.667206 320.62973 199.938538 320.122467 196.297882 317.530121 L 157.708954 289.881073 C 155.381012 288.212982 153.84787 285.655273 153.473969 282.815918 C 153.100037 279.976532 153.918732 277.109131 155.735413 274.895203 C 159.32608 270.565979 165.706207 269.871674 170.144012 273.327209 L 203.232483 299.369202 L 229.532684 289.194031 Z"/>
    <path id="path28" fill="#2f2e41" stroke="none" d="M 155.75592 241.884949 C 158.785919 238.088531 164.446747 237.88443 168.608765 235.380157 C 174.060577 232.099854 176.314514 224.769409 174.557648 218.654175 C 172.800781 212.53894 167.619568 207.773163 161.67923 205.493866 C 155.738922 203.2146 149.129852 203.186401 142.863342 204.288208 C 133.533142 205.92868 124.347237 210.283325 118.656807 217.857147 C 112.966377 225.430969 111.518227 236.52298 116.675331 244.469574 C 119.04557 248.121948 122.704536 251.136719 123.650826 255.386688 C 124.893105 260.966248 120.979408 266.347534 116.786598 270.232697 C 112.009865 274.658966 106.52961 278.366089 102.344673 283.355652 C 98.159767 288.345184 95.369057 295.161835 97.278694 301.387787 C 98.87867 306.604126 103.534584 310.447266 108.640114 312.371857 C 113.745644 314.296478 119.30619 314.574554 124.76136 314.681244 C 130.058533 314.784882 135.684967 314.656036 140.147339 311.799835 C 144.9245 308.742218 147.475159 302.941559 147.663605 297.272797 C 147.852051 291.604034 145.957733 286.050293 143.418976 280.978302 C 141.905731 277.95517 140.146301 275.025726 139.140778 271.798035 C 138.135284 268.570313 137.96109 264.907867 139.57135 261.935303 C 141.264038 258.810638 144.688477 256.9263 148.175476 256.241089 C 148.356628 256.205505 148.54834 256.173706 148.74881 256.145386 C 150.753693 255.885315 152.564819 254.816162 153.761139 253.186432 C 154.957458 251.556702 155.434784 249.508423 155.082092 247.517731 C 154.684845 245.303406 154.719147 243.183899 155.75592 241.884949 Z"/>
    <path id="path29" fill="#a0616a" stroke="none" d="M 483.229004 567.290405 L 470.968994 567.290405 L 465.136993 520.002441 L 483.230988 520.003418 L 483.229004 567.290405 Z"/>
    <path id="path30" fill="#2f2e41" stroke="none" d="M 462.212006 563.787231 L 485.855865 563.787231 L 485.855865 563.787231 L 485.855865 578.674133 L 485.855865 578.674133 L 447.325104 578.674133 L 447.325104 578.674133 L 447.325104 578.674133 C 447.325104 574.725891 448.893524 570.939331 451.685364 568.147522 C 454.477203 565.355652 458.263763 563.787231 462.212006 563.787231 Z"/>
    <path id="path31" fill="#a0616a" stroke="none" d="M 572.184021 553.403442 L 561.03302 558.496399 L 536.078979 517.90741 L 552.538025 510.389404 L 572.184021 553.403442 Z"/>
    <path id="path32" fill="#2f2e41" stroke="none" d="M 551.611755 558.94873 L 573.118469 549.12561 L 573.118469 549.12561 L 579.303406 562.666809 L 579.303406 562.666809 L 544.255493 578.674927 L 544.255493 578.674927 L 544.255493 578.674927 C 542.615173 575.083557 542.468689 570.987671 543.848206 567.28833 C 545.227783 563.588928 548.020447 560.589111 551.611755 558.94873 Z"/>
    <path id="path33" fill="#a0616a" stroke="none" d="M 536.481506 407.847382 C 538.859314 406.057892 540.322388 403.307098 540.47699 400.335175 C 540.631592 397.363251 539.461914 394.475494 537.282654 392.448883 L 551.694214 359.748993 L 533.38562 362.851776 L 522.507019 393.428497 C 519.274231 397.402435 519.524597 403.166351 523.089844 406.84494 C 526.655151 410.52359 532.408325 410.954254 536.481506 407.847382 Z"/>
    <path id="path34" fill="#2f2e41" stroke="none" d="M 482.44751 554.821838 L 470.735596 554.821838 C 468.380066 554.813721 466.426208 552.996765 466.247314 550.64801 L 459.860352 380.089386 C 459.76416 378.766388 460.256653 377.468414 461.206116 376.542145 C 462.15564 375.615875 463.465454 375.155731 464.785645 375.284698 L 532.520508 382.478058 C 534.792908 382.700348 536.53894 384.588776 536.582764 386.871613 L 538.002197 462.106964 C 538.009766 462.51535 538.088928 462.919281 538.236084 463.300323 L 566.02124 535.353027 C 566.454895 536.477417 566.419312 537.728882 565.922485 538.826782 C 565.425659 539.924805 564.509094 540.777466 563.378174 541.193848 L 551.509766 545.566895 C 549.376587 546.352295 546.992615 545.42395 545.952393 543.402832 L 511.819824 477.033661 C 511.63385 476.672882 511.497864 476.288483 511.415527 475.891083 L 505.584717 447.797333 C 505.235413 446.114716 503.716248 444.934601 501.999573 445.012299 C 500.282837 445.089996 498.876526 446.402557 498.680725 448.109833 L 486.918457 550.833557 C 486.658813 553.106262 484.735046 554.822327 482.44751 554.821838 Z"/>
    <path id="path35" fill="#a0616a" stroke="none" d="M 512.840454 222.168243 C 512.840454 235.732941 501.844116 246.729279 488.279419 246.729279 C 474.714752 246.729279 463.718414 235.732941 463.718414 222.168243 C 463.718414 208.603577 474.714752 197.607208 488.279419 197.607208 C 501.844116 197.607208 512.840454 208.603577 512.840454 222.168243 Z"/>
    <path id="path36" fill="#387b74" stroke="none" d="M 505.123047 395.684784 C 488.467163 395.50119 472.208313 390.576263 458.250244 381.486481 L 458.01123 381.321503 L 458.035889 381.031952 L 467.430908 271.615967 C 468.100525 263.939636 474.33374 257.935852 482.029785 257.554443 C 494.20575 256.994873 510.560791 257.700439 519.315674 264.220947 C 532.546387 274.075439 538.92334 288.914795 536.811279 304.93335 C 532.431152 338.1521 537.393066 382.962616 537.973145 387.962616 L 538.015137 388.322968 L 537.685547 388.474335 C 527.485718 393.219635 516.372681 395.68045 505.123047 395.684784 Z"/>
    <path id="path37" fill="#387b74" stroke="none" d="M 537.859863 388.148102 C 536.460205 388.14566 535.125427 387.557465 534.179199 386.526031 L 528.806641 380.664764 C 527.626099 379.369171 527.205811 377.552155 527.69751 375.869781 L 539.948242 334.405945 L 521.30835 295.26239 C 520.437927 293.430084 520.224731 291.353973 520.70459 289.382996 C 521.570496 285.841309 524.528687 283.199036 528.145325 282.73703 C 531.761902 282.275024 535.289368 284.088745 537.017822 287.299011 L 562.3125 328.341003 C 564.398987 331.722015 564.668823 335.918854 563.032532 339.539246 L 542.422668 385.204254 C 541.73291 386.737701 540.316895 387.820404 538.656311 388.084137 C 538.392944 388.126434 538.126587 388.147858 537.859863 388.148102 Z"/>
    <path id="path38" fill="#a0616a" stroke="none" d="M 364.737793 308.942993 C 367.125671 310.719055 370.177551 311.346222 373.072327 310.655731 C 375.967041 309.96521 378.407227 308.027985 379.736328 305.365326 L 415.174316 309.961426 L 407.030151 293.27298 L 374.62616 291.46698 C 369.901306 289.487335 364.442566 291.354401 361.9198 295.812958 C 359.397034 300.271484 360.607666 305.912262 364.737793 308.942963 Z"/>
    <path id="path39" fill="#387b74" stroke="none" d="M 442.849365 318.057312 C 442.232239 318.057281 441.615906 318.014709 441.004639 317.929871 L 385.253662 310.197449 C 383.402832 309.943207 381.804749 308.773468 381.00293 307.086121 C 380.875427 306.818512 380.769104 306.54129 380.685059 306.257019 L 380.684814 306.257019 C 380.248779 304.764343 380.457275 303.157349 381.259766 301.825378 L 385.873352 294.176453 C 386.88269 292.514008 388.684326 291.49649 390.629211 291.490448 L 390.63678 291.490448 L 439.232666 291.546112 L 475.526672 259.029022 C 477.21521 257.519684 479.371582 256.637146 481.63385 256.52951 C 485.699829 256.341125 489.461731 258.676941 491.096191 262.404755 C 492.730591 266.132568 491.89978 270.482025 489.006409 273.34494 L 452.79126 313.623199 C 450.256714 316.44516 446.642395 318.057129 442.849365 318.057312 Z"/>
    <path id="path40" fill="#2f2e41" stroke="none" d="M 491.071655 244.018402 C 493.316162 238.823822 495.215454 231.905884 490.9104 228.233246 C 488.413269 226.102966 484.816528 226.098572 481.544922 225.833527 C 472.327637 225.086853 462.839417 220.845825 458.334167 212.769989 C 453.828918 204.694122 456.344971 192.685547 464.844421 189.041992 C 470.573608 186.585968 477.141846 188.259064 483.138855 189.959656 L 501.144653 195.065582 C 506.49469 196.582703 512.112 198.255829 515.963623 202.267059 C 522.106323 208.664368 521.647156 219.478729 516.76825 226.885071 C 511.889343 234.291412 504.54187 242.015869 496.130554 244.827881 Z"/>
</svg>
