<?xml version="1.0" encoding="UTF-8"?>
<!-- Generated by Pixelmator Pro 3.2.3 -->
<svg width="744" height="539" viewBox="0 0 744 539" xmlns="http://www.w3.org/2000/svg" xmlns:xlink="http://www.w3.org/1999/xlink">
    <path id="path1" fill="#f2f2f2" stroke="none" d="M 474.114197 404.000061 L 474.114197 534.000061 L 148.415405 534.000061 C 111.306427 534.000061 81.114166 504.84021 81.114166 469.000061 C 81.114166 433.159912 111.306366 404.000061 148.415405 404.000061 Z"/>
    <path id="path2" fill="#387b74" stroke="none" d="M 482.114197 533.000061 C 482.113037 535.761047 479.875122 537.998962 477.114197 538.000061 L 142.614166 538.000061 C 104.782654 538.000061 74.114166 507.331543 74.114166 469.500061 C 74.114166 431.668579 104.782654 401.000061 142.614166 401.000061 L 477.114197 401.000061 C 479.87561 401.000061 482.114197 403.238647 482.114197 406.000061 C 482.114197 408.761475 479.87561 411.000061 477.114197 411.000061 L 142.614166 411.000061 C 110.305511 411.000061 84.114166 437.191406 84.114166 469.500061 C 84.114166 501.808716 110.305511 528.000061 142.614166 528.000061 L 477.114197 528.000061 C 479.875122 528.00116 482.113037 530.239075 482.114197 533.000061 Z"/>
    <path id="path3" fill="#cccccc" stroke="none" d="M 474.114197 434.000061 L 124.114166 434.000061 C 123.56189 434.000061 123.114166 433.552368 123.114166 433.000061 C 123.114166 432.447754 123.56189 432.000061 124.114166 432.000061 L 474.114197 432.000061 C 474.666443 432.000061 475.114197 432.447754 475.114197 433.000061 C 475.114197 433.552368 474.666443 434.000061 474.114197 434.000061 Z"/>
    <path id="path4" fill="#cccccc" stroke="none" d="M 474.114197 458.000061 L 124.114166 458.000061 C 123.56189 458.000061 123.114166 457.552368 123.114166 457.000061 C 123.114166 456.447754 123.56189 456.000061 124.114166 456.000061 L 474.114197 456.000061 C 474.666443 456.000061 475.114197 456.447754 475.114197 457.000061 C 475.114197 457.552368 474.666443 458.000061 474.114197 458.000061 Z"/>
    <path id="path5" fill="#cccccc" stroke="none" d="M 474.114197 482.000061 L 124.114166 482.000061 C 123.56189 482.000061 123.114166 481.552368 123.114166 481.000061 C 123.114166 480.447754 123.56189 480.000061 124.114166 480.000061 L 474.114197 480.000061 C 474.666443 480.000061 475.114197 480.447754 475.114197 481.000061 C 475.114197 481.552368 474.666443 482.000061 474.114197 482.000061 Z"/>
    <path id="path6" fill="#cccccc" stroke="none" d="M 474.114197 506.000061 L 124.114166 506.000061 C 123.56189 506.000061 123.114166 505.552368 123.114166 505.000061 C 123.114166 504.447754 123.56189 504.000061 124.114166 504.000061 L 474.114197 504.000061 C 474.666443 504.000061 475.114197 504.447754 475.114197 505.000061 C 475.114197 505.552368 474.666443 506.000061 474.114197 506.000061 Z"/>
    <path id="path7" fill="#f2f2f2" stroke="none" d="M 725.831604 428.470947 L 644.266846 529.699402 L 390.651672 325.349182 C 361.755615 302.066162 356.541016 260.416748 379.027893 232.508728 C 401.514771 204.600677 443.320313 200.837708 472.21637 224.120728 Z"/>
    <path id="path8" fill="#cccccc" stroke="none" d="M 651.123718 533.940063 C 649.390564 536.089294 646.243835 536.427795 644.093201 534.69635 L 383.624695 324.824036 C 354.166016 301.087769 349.5271 257.964752 373.263428 228.506104 C 396.999695 199.047455 440.122681 194.408539 469.58136 218.144836 L 730.049866 428.017212 C 731.442078 429.137573 732.130432 430.915833 731.85553 432.68158 C 731.580627 434.447327 730.384277 435.932129 728.717407 436.576294 C 727.050476 437.220459 725.166504 436.926025 723.775696 435.804016 L 463.307129 225.931641 C 447.033569 212.808685 424.994019 209.367157 405.494385 216.904114 C 385.994812 224.44104 371.999146 241.81076 368.781921 262.467255 C 365.564758 283.123779 373.61499 303.927124 389.898865 317.037231 L 650.367432 526.909607 C 652.516602 528.6427 652.855103 531.789429 651.123718 533.940063 Z"/>
    <path id="path9" fill="#cccccc" stroke="none" d="M 707.008972 451.83136 L 434.470886 232.234039 C 434.040833 231.887512 433.973083 231.257965 434.31958 230.827911 C 434.666138 230.397858 435.295654 230.330139 435.725708 230.676666 L 708.263794 450.274048 C 708.54248 450.498047 708.68042 450.853821 708.625488 451.207153 C 708.570557 451.560486 708.331177 451.857544 707.99762 451.986389 C 707.664063 452.115173 707.287109 452.056091 707.008972 451.831421 Z"/>
    <path id="path10" fill="#cccccc" stroke="none" d="M 691.950867 470.519714 L 419.412781 250.922333 C 418.983521 250.575592 418.91626 249.946686 419.262512 249.517029 C 419.608704 249.087372 420.237488 249.019318 420.667603 249.36499 L 693.205688 468.962341 C 693.484375 469.18634 693.622314 469.542114 693.567383 469.895447 C 693.512451 470.248718 693.273071 470.545837 692.939514 470.674683 C 692.605957 470.803467 692.229004 470.744385 691.950867 470.519714 Z"/>
    <path id="path11" fill="#cccccc" stroke="none" d="M 676.892761 489.208069 L 404.354675 269.610657 C 403.924622 269.26416 403.856873 268.634613 404.203369 268.204559 C 404.549927 267.774506 405.179443 267.706787 405.609497 268.053284 L 678.147583 487.650696 C 678.577637 487.997192 678.645386 488.626709 678.298828 489.056763 C 677.952332 489.486816 677.322815 489.554565 676.892761 489.208008 Z"/>
    <path id="path12" fill="#cccccc" stroke="none" d="M 661.834656 507.896362 L 389.29657 288.299011 C 388.866516 287.952515 388.798767 287.322998 389.145325 286.892944 C 389.491821 286.462891 390.121338 286.395142 390.551392 286.741699 L 663.089478 506.338989 C 663.368164 506.562988 663.506104 506.918762 663.451172 507.272095 C 663.39624 507.625427 663.15686 507.922485 662.823303 508.051331 C 662.489746 508.180115 662.112793 508.121033 661.834656 507.896362 Z"/>
    <path id="path13" fill="#ffb8b8" stroke="none" d="M 338.080994 390.33609 L 326.648987 390.335083 L 321.212006 346.239075 L 338.084991 346.241089 L 338.080994 390.33609 Z"/>
    <path id="path14" fill="#2f2e41" stroke="none" d="M 318.482422 387.068634 L 340.530212 387.068634 L 340.530212 387.068634 L 340.530212 400.950562 L 340.530212 400.950562 L 304.600494 400.950562 L 304.600494 400.950562 L 304.600494 400.950562 C 304.600464 397.26886 306.063019 393.737915 308.666382 391.134552 C 311.269775 388.531189 314.80069 387.068634 318.482422 387.068634 Z"/>
    <path id="path15" fill="#ffb8b8" stroke="none" d="M 221.285995 390.33609 L 209.854004 390.335083 L 204.417007 346.239075 L 221.289993 346.241089 L 221.285995 390.33609 Z"/>
    <path id="path16" fill="#2f2e41" stroke="none" d="M 201.687866 387.068634 L 223.735687 387.068634 L 223.735687 387.068634 L 223.735687 400.950562 L 223.735687 400.950562 L 187.805939 400.950562 L 187.805939 400.950562 L 187.805939 400.950562 C 187.805939 397.26886 189.268494 393.737915 191.871857 391.134552 C 194.47522 388.531189 198.006149 387.068634 201.687866 387.068634 Z"/>
    <path id="path17" fill="#2f2e41" stroke="none" d="M 259.470856 63.247131 L 259.470856 58.24707 C 259.470856 40.435913 273.909668 25.99707 291.720825 25.99707 L 291.720886 25.99707 C 309.532104 25.99707 323.970886 40.435913 323.970886 58.24707 L 323.970886 63.247131 C 323.970886 76.087769 313.561523 86.497131 300.720886 86.497131 L 282.720917 86.497131 C 276.554626 86.497162 270.640869 84.047607 266.28064 79.687378 C 261.92041 75.327179 259.470856 69.413422 259.470856 63.247131 Z"/>
    <path id="path18" fill="#ffb8b8" stroke="none" d="M 316.281891 63.656555 C 316.281891 77.221252 305.285522 88.21759 291.720856 88.21759 C 278.156158 88.21759 267.159821 77.221252 267.159821 63.656555 C 267.159821 50.091888 278.156158 39.095551 291.720856 39.095551 C 305.285522 39.095551 316.281891 50.091888 316.281891 63.656555 Z"/>
    <path id="path19" fill="#ffb8b8" stroke="none" d="M 158.124573 148.069611 C 160.142273 146.164398 162.900208 145.250732 165.656311 145.574463 C 168.412445 145.898224 170.883575 147.426117 172.404846 149.74704 L 193.459473 145.764343 L 199.000366 157.968903 L 169.188171 163.175598 C 165.028442 165.524323 159.769409 164.390625 156.946777 160.536682 C 154.124176 156.682739 154.630157 151.326752 158.124573 148.06958 Z"/>
    <path id="path20" fill="#cccccc" stroke="none" d="M 272.572571 103.685303 L 272.847931 104.102509 L 238.322113 126.846893 L 180.063782 145.450165 C 178.471375 145.961853 177.4617 147.526672 177.651794 149.188446 L 178.922699 160.135071 C 179.036682 161.114716 179.558655 162.000854 180.360199 162.5755 C 181.161743 163.150177 182.168518 163.360046 183.132935 163.153564 L 237.962646 151.400787 C 240.61618 150.835266 243.125214 149.730591 245.334137 148.155304 L 284.122009 120.558411 C 286.9823 118.512329 288.560486 115.116516 288.280396 111.610931 C 287.990967 108.099823 285.870972 105.00177 282.703033 103.46048 C 279.535095 101.919159 275.789063 102.163208 272.84787 104.102509 Z"/>
    <path id="path21" fill="#2f2e41" stroke="none" d="M 326.85321 377.822754 C 325.060181 377.823059 323.436646 376.763184 322.715515 375.121582 L 270.305573 245.620575 C 270.054962 245.045288 269.472717 244.686829 268.846222 244.722137 C 268.219727 244.757416 267.681427 245.178986 267.496979 245.778778 L 224.738678 371.852539 C 224.373871 373.038391 223.535736 374.021057 222.422272 374.568359 C 221.308838 375.115662 220.01886 375.179138 218.857086 374.743652 L 204.518707 369.366699 C 202.931702 368.776978 201.811493 367.344482 201.621704 365.662109 C 195.171265 309.469727 251.421753 167.632324 251.990845 166.206543 L 252.148315 165.811523 L 303.425415 177.154297 L 303.532104 177.270508 C 323.989868 199.588379 340.805542 340.352539 343.968872 368.344299 C 344.211731 370.426941 342.977112 372.399231 340.997681 373.090881 L 328.341431 377.566956 C 327.863525 377.736267 327.360229 377.822754 326.85321 377.822754 Z"/>
    <path id="path22" fill="#cccccc" stroke="none" d="M 282.672516 181.719727 C 270.248932 181.719727 256.398102 179.242706 252.134674 169.019043 L 252.03653 168.78418 L 252.169098 168.566406 C 255.534332 163.044891 259.982086 153.625977 257.591461 151.85791 C 252.882233 148.375977 250.597076 142.647888 250.799957 134.83252 C 251.240387 117.866699 262.800446 102.80368 279.565826 97.350098 L 279.566071 97.350098 C 284.245728 95.852478 289.007996 94.626312 293.828979 93.677734 C 300.945618 92.24173 308.331482 94.065643 313.961548 98.649414 C 319.662415 103.263275 322.999451 110.186218 323.057495 117.52002 C 323.233276 135.650879 320.442017 160.90332 306.145386 178.240234 C 305.475281 179.044617 304.542908 179.586853 303.51239 179.771484 C 296.634277 181.015594 289.662048 181.667389 282.672516 181.719727 Z"/>
    <path id="path23" fill="#ffb8b8" stroke="none" d="M 278.051117 181.040833 C 279.458252 175.993134 284.66803 173.020264 289.729553 174.376678 C 290.226074 174.515442 290.710266 174.694794 291.177368 174.912903 L 307.164063 160.364075 L 318.282043 167.85434 L 295.420288 188.085266 C 293.296082 191.91507 288.836975 193.806488 284.607056 192.671875 C 282.188293 192.009888 280.134583 190.408325 278.903229 188.223724 C 277.671844 186.039124 277.365051 183.452881 278.051117 181.040833 Z"/>
    <path id="path24" fill="#cccccc" stroke="none" d="M 304.631775 181.225586 C 303.594421 181.226227 302.588928 180.867493 301.786316 180.210449 L 295.481873 175.058594 C 294.417175 174.188507 293.808716 172.879425 293.830017 171.504608 C 293.851257 170.129791 294.499939 168.840149 295.591003 168.003418 L 322.032654 147.723633 C 322.684937 147.220886 322.811279 146.286896 322.316101 145.628906 L 305.995789 124.052734 C 302.080811 118.894165 302.455688 111.664429 306.88324 106.938477 L 306.88324 106.938477 C 311.565857 101.881104 319.343994 101.259003 324.770935 105.507782 L 324.874207 105.616699 L 341.916199 130.019043 C 345.651794 132.947998 347.803711 137.454651 347.733032 142.201111 C 347.662354 146.94754 345.377258 151.388123 341.556091 154.20459 L 307.310486 180.343231 C 306.534912 180.916321 305.596069 181.225586 304.631775 181.225586 Z"/>
    <path id="path25" fill="#2f2e41" stroke="none" d="M 269.96524 56.747101 L 269.96524 44.560974 L 291.720825 35.060974 L 312.46521 44.560974 L 312.46521 56.747101 C 312.46521 57.851685 311.569824 58.747101 310.46521 58.747101 L 271.96524 58.747101 C 270.860657 58.747101 269.96524 57.851685 269.96524 56.747101 Z"/>
    <path id="path26" fill="#2f2e41" stroke="none" d="M 290.722107 27.613708 C 287.523315 17.375183 294.241394 5.641357 304.172974 1.588684 C 314.104492 -2.463928 325.986389 0.368958 334.366638 7.064575 C 342.746887 13.760193 347.946289 23.789001 350.701233 34.155762 C 353.456177 44.522552 353.979126 55.332581 354.487732 66.047119 C 366.689941 68.288513 374.99054 82.761383 370.763489 94.425446 C 366.536438 106.089508 350.890808 111.884247 340.085693 105.78775 C 329.280579 99.691254 326.151001 83.303131 333.94928 73.654053 C 341.540771 64.260864 341.781921 50.911377 334.534668 41.250122 C 327.287415 31.588867 314.403809 28.084717 303.261536 32.744354 C 297.247742 35.259277 289.702026 28.724976 290.722107 27.613708 Z"/>
    <path id="path27" fill="#387b74" stroke="none" d="M 153.614166 100.796875 C 139.004822 100.700958 124.578064 97.54129 111.266022 91.521973 C 109.646881 90.800354 108.60672 89.190613 108.614166 87.417969 L 108.614166 51.000031 C 108.616913 48.5159 110.630035 46.502777 113.114166 46.500031 L 194.114166 46.500031 C 196.598297 46.502838 198.611359 48.5159 198.614166 51.000031 L 198.614166 87.41803 C 198.621582 89.190643 197.581421 90.800385 195.962311 91.522034 L 195.962311 91.522034 C 182.650269 97.541321 168.223511 100.700989 153.614166 100.796875 Z"/>
    <path id="path28" fill="#387b74" stroke="none" d="M 153.603058 71.293945 C 153.002563 71.294464 152.408051 71.174927 151.854401 70.942383 L 87.622467 43.842773 C 85.927765 43.127869 84.838806 41.453491 84.872498 39.614471 C 84.906219 37.775452 86.055786 36.14212 87.775543 35.489777 L 152.008331 11.122009 C 153.042908 10.727722 154.186768 10.730164 155.219635 11.128845 L 218.591705 35.496552 C 220.301361 36.154053 221.441895 37.782196 221.475739 39.613617 C 221.509583 41.445038 220.429993 43.114227 218.745758 43.834442 L 155.372986 70.933594 C 154.813385 71.171906 154.211304 71.294495 153.603058 71.293945 Z"/>
    <path id="path29" fill="#3f3d56" stroke="none" d="M 122.114166 88 C 122.114166 91.313721 119.427879 94 116.114166 94 C 112.800461 94 110.114166 91.313721 110.114166 88 C 110.114166 84.686279 112.800461 82 116.114166 82 C 119.427879 82 122.114166 84.686279 122.114166 88 Z"/>
    <path id="path30" fill="#000000" stroke="none" opacity="0.2" d="M 218.964752 39.987854 L 155.591705 67.087036 C 154.593445 67.513885 153.464569 67.516632 152.464264 67.094604 L 88.23233 39.995789 C 87.42569 39.663574 86.752716 39.072052 86.319733 38.314697 C 85.746796 39.308167 85.628204 40.499908 85.994141 41.586823 C 86.360046 42.673706 87.175232 43.551086 88.23233 43.995789 L 152.464264 71.094604 C 153.464569 71.516632 154.593445 71.513885 155.591705 71.087036 L 218.964752 43.987854 C 220.016449 43.539276 220.825684 42.661774 221.187836 41.577301 C 221.549988 40.492798 221.430389 39.305145 220.859283 38.314636 C 220.429443 39.065948 219.763428 39.654175 218.964752 39.987854 Z"/>
    <path id="path31" fill="#3f3d56" stroke="none" d="M 116.618317 87.976532 C 117.170593 87.976532 117.618317 87.528839 117.618317 86.976532 L 117.618317 53.515137 L 150.599518 41.5 C 151.151794 41.508209 151.606201 41.067169 151.61441 40.514893 C 151.62265 39.962616 151.18158 39.508209 150.629303 39.5 L 117.648102 51.515137 C 117.111786 51.502808 116.593781 51.710663 116.214752 52.090332 C 115.831818 52.465302 115.616699 52.979156 115.618317 53.515137 L 115.618317 86.976532 C 115.618347 87.528809 116.06604 87.976532 116.618317 87.976532 Z"/>
</svg>
